# ProBuilder 4.5.0
# https://unity3d.com/unity/features/worldbuilding/probuilder
# 27/03/2021 00:59:04

mtllib ./Pyramid.mtl
o Pyramid

g Cube(Clone)
v 2.518252 -2.50001 4.388067
v 0 -2.50001 4.388067
v 0 1.192093E-07 4.388067
v 2.518252 1.192093E-07 4.388067
v -2.518252 -2.50001 4.388067
v -2.518252 1.192093E-07 4.388067
v -2.518252 2.50001 4.388067
v 0 2.50001 4.388067
v 2.518252 2.50001 4.388067
v -1.270242 -1.933969 0
v -1.270242 -0.6721414 0
v -0.02223146 -1.367929 -4.388067
v -0.02223146 -1.344283 -4.388067
v -0.02223146 -1.320637 -4.388067
v -1.270242 0.5896863 0
v 0 -1.367929 -4.388067
v 0 -1.344283 -4.388067
v 0.02223146 -1.367929 -4.388067
v 0.02223146 -1.344283 -4.388067
v 0.02223146 -1.320637 -4.388067
v 0 -1.320637 -4.388067
v 1.270242 -1.933969 0
v 1.270242 -0.6721414 0
v 1.270242 0.5896863 0
v 0 0.5896863 0
v 0 -1.933969 0

vt 2.518252 -2.50001
vt 0 -2.50001
vt 0 1.192093E-07
vt 2.518252 1.192093E-07
vt -2.518252 -2.50001
vt -2.518252 1.192093E-07
vt -2.518252 2.50001
vt 0 2.50001
vt 2.518252 2.50001
vt 4.909578 -2.50001
vt 0.3474887 -1.933969
vt 0.3474887 -0.6721414
vt 4.909578 1.192093E-07
vt -4.214601 -1.367929
vt -4.214601 -1.344283
vt -4.214601 -1.320637
vt 0.3474887 0.5896863
vt 4.909578 2.50001
vt 0.02223146 -1.367929
vt 0 -1.367929
vt 0 -1.344283
vt 0.02223146 -1.344283
vt -0.02223146 -1.367929
vt -0.02223146 -1.344283
vt -0.02223146 -1.320637
vt 0 -1.320637
vt 0.02223146 -1.320637
vt 4.214601 -1.367929
vt -0.3474887 -1.933969
vt -0.3474887 -0.6721414
vt 4.214601 -1.344283
vt -4.909578 -2.50001
vt -4.909578 1.192093E-07
vt -4.909578 2.50001
vt -0.3474887 0.5896863
vt 4.214601 -1.320637
vt -2.518252 5.02124
vt 0 5.02124
vt 0 0.2353791
vt -1.270242 0.2353791
vt 2.518252 5.02124
vt 1.270242 0.2353791
vt 0.02223146 -4.550482
vt 0 -4.550482
vt -0.02223146 -4.550482
vt 0.02223146 -4.177002
vt 0 -4.177002
vt 0 0.2474231
vt 1.270242 0.2474231
vt -0.02223146 -4.177002
vt -1.270242 0.2474231
vt -2.518252 4.671848
vt 0 4.671848
vt 2.518252 4.671848

vn 0 0 1
vn -0.9618546 0 -0.2735611
vn 0 0 -1
vn 0.9618546 0 -0.2735611
vn 0 0.9168814 -0.3991598
vn 0 -0.9917825 -0.1279354

usemtl ProBuilderDefault
f 4/4/1 3/3/1 2/2/1 1/1/1
f 3/3/1 6/6/1 5/5/1 2/2/1
f 8/8/1 7/7/1 6/6/1 3/3/1
f 9/9/1 8/8/1 3/3/1 4/4/1
f 6/13/2 11/12/2 10/11/2 5/10/2
f 11/12/2 13/15/2 12/14/2 10/11/2
f 11/12/2 15/17/2 14/16/2 13/15/2
f 7/18/2 15/17/2 11/12/2 6/13/2
f 16/20/3 12/19/3 13/22/3 17/21/3
f 18/23/3 16/20/3 17/21/3 19/24/3
f 17/21/3 21/26/3 20/25/3 19/24/3
f 13/22/3 14/27/3 21/26/3 17/21/3
f 18/28/4 19/31/4 23/30/4 22/29/4
f 22/29/4 23/30/4 4/33/4 1/32/4
f 23/30/4 24/35/4 9/34/4 4/33/4
f 19/31/4 20/36/4 24/35/4 23/30/4
f 9/37/5 24/40/5 25/39/5 8/38/5
f 7/41/5 8/38/5 25/39/5 15/42/5
f 15/42/5 25/39/5 21/44/5 14/43/5
f 24/40/5 20/45/5 21/44/5 25/39/5
f 26/48/6 16/47/6 18/46/6 22/49/6
f 16/47/6 26/48/6 10/51/6 12/50/6
f 26/48/6 2/53/6 5/52/6 10/51/6
f 2/53/6 26/48/6 22/49/6 1/54/6

